HIERARCHY
ROOT Hips
{
	OFFSET 0.000000 88.474243 0.000000
	CHANNELS 6 Xposition Yposition Zposition Zrotation Yrotation Xrotation 
	JOINT Hips_Spine
	{
		OFFSET 0.000000 0.000000 0.000000
		CHANNELS 3 Zrotation Yrotation Xrotation
		JOINT Spine
		{
			OFFSET 0.005100 8.711998 -0.691000
			CHANNELS 3 Zrotation Yrotation Xrotation
			JOINT Spine1
			{
				OFFSET -0.009200 8.660301 -1.275000
				CHANNELS 3 Zrotation Yrotation Xrotation
				JOINT Spine2
				{
					OFFSET 0.006300 9.852501 -1.857000
					CHANNELS 3 Zrotation Yrotation Xrotation
					JOINT Spine2_Neck
					{
						OFFSET 0.000000 0.000000 0.000000
						CHANNELS 3 Zrotation Yrotation Xrotation
						JOINT Neck
						{
							OFFSET 0.016300 11.420799 -0.263300
							CHANNELS 3 Zrotation Yrotation Xrotation
							End Site #name: Head
							{
								OFFSET -0.019200 9.262405 2.362500
							}
						}
					}
					JOINT Spine2_LeftShoulder
					{
						OFFSET 0.000000 0.000000 0.000000
						CHANNELS 3 Zrotation Yrotation Xrotation
						JOINT LeftShoulder
						{
							OFFSET 5.616900 6.732201 -0.345700
							CHANNELS 3 Zrotation Yrotation Xrotation
							JOINT LeftArm
							{
								OFFSET 10.664888 -0.183372 -2.440700
								CHANNELS 3 Zrotation Yrotation Xrotation
								JOINT LeftForeArm
								{
									OFFSET 27.459126 0.000000 0.000000
									CHANNELS 3 Zrotation Yrotation Xrotation
									End Site #name: LeftHand
									{
										OFFSET 21.306858 0.000000 0.000000
									}
								}
							}
						}
					}
					JOINT Spine2_RightShoulder
					{
						OFFSET 0.000000 0.000000 0.000000
						CHANNELS 3 Zrotation Yrotation Xrotation
						JOINT RightShoulder
						{
							OFFSET -5.580300 6.737503 -0.344400
							CHANNELS 3 Zrotation Yrotation Xrotation
							JOINT RightArm
							{
								OFFSET -10.679335 -0.188484 -2.383900
								CHANNELS 3 Zrotation Yrotation Xrotation
								JOINT RightForeArm
								{
									OFFSET -27.503529 0.000000 0.000000
									CHANNELS 3 Zrotation Yrotation Xrotation
									End Site #name: RightHand
									{
										OFFSET -21.306808 0.000000 0.000000
									}
								}
							}
						}
					}
				}
			}
		}
	}
	JOINT Hips_LeftUpLeg
	{
		OFFSET 0.000000 0.000000 0.000000
		CHANNELS 3 Zrotation Yrotation Xrotation
		JOINT LeftUpLeg
		{
			OFFSET 6.857700 -6.739601 0.312100
			CHANNELS 3 Zrotation Yrotation Xrotation
			JOINT LeftLeg
			{
				OFFSET -0.367590 -34.731552 -4.572400
				CHANNELS 3 Zrotation Yrotation Xrotation
				End Site #name: LeftFoot
				{
					OFFSET 0.367590 -34.656704 -6.067400
				}
			}
		}
	}
	JOINT Hips_RightUpLeg
	{
		OFFSET 0.000000 0.000000 0.000000
		CHANNELS 3 Zrotation Yrotation Xrotation
		JOINT RightUpLeg
		{
			OFFSET -6.876100 -6.733299 0.301000
			CHANNELS 3 Zrotation Yrotation Xrotation
			JOINT RightLeg
			{
				OFFSET 0.347353 -34.795158 -4.515900
				CHANNELS 3 Zrotation Yrotation Xrotation
				End Site #name: RightFoot
				{
					OFFSET -0.347353 -34.589367 -6.070300
				}
			}
		}
	}
}
MOTION
Frames: 6
Frame Time: 0.041667
-0.262927 -0.129039 -1.137301 -1.477782 -2.376633 -0.958289 0.000000 -0.000000 0.000000 -0.983916 0.770246 5.322410 -1.240749 -0.011452 2.802834 0.000000 0.000000 0.000000 -1.425170 -0.413175 1.692168 3.923760 -3.152773 9.510941 -1.350198 -0.422186 2.875602 -3.726844 6.519554 -0.659691 -71.429812 -4.705160 30.188114 0.115110 -6.617651 0.240051 -1.706249 -0.305714 2.451353 8.541349 -3.380937 0.361683 47.959684 36.770066 -7.472812 179.316242 41.568176 -179.772529 0.000000 -0.000000 -0.000000 1.489621 12.260254 -17.099113 2.902570 2.332641 18.498342 0.000000 -0.000000 0.000000 -0.839390 -10.313582 -12.519071 -0.039319 -1.513140 17.532028 
-0.307321 -0.135171 -1.166739 -1.418566 -2.384242 -0.963364 0.000000 -0.000000 0.000000 -0.969881 0.755719 5.269325 -1.208799 -0.020912 2.801740 0.000000 0.000000 0.000000 -1.383604 -0.424816 1.707275 3.861544 -3.110770 9.507445 -1.315658 -0.435849 2.883466 -3.779005 6.460823 -0.655477 -71.563038 -4.933013 29.919030 0.115890 -6.338834 0.238259 -1.666061 -0.323591 2.462475 8.841189 -3.415610 0.352039 48.499936 36.463299 -6.765664 179.326341 41.722289 -179.774553 0.000000 -0.000000 -0.000000 1.496006 12.269554 -17.061692 2.877657 2.274451 18.437742 0.000000 -0.000000 0.000000 -0.836034 -10.307451 -12.503849 -0.038010 -1.521927 17.511515 
-0.345778 -0.141401 -1.196433 -1.363659 -2.396321 -0.968339 0.000000 -0.000000 0.000000 -0.953200 0.742704 5.213685 -1.175320 -0.024753 2.798601 0.000000 0.000000 0.000000 -1.341075 -0.430621 1.722807 3.791507 -3.066490 9.502838 -1.279595 -0.443228 2.891978 -3.845451 6.396974 -0.651840 -71.687072 -5.189775 29.631447 0.115365 -6.055340 0.236209 -1.625958 -0.335838 2.474638 9.148514 -3.450987 0.343268 49.095421 36.116570 -5.992669 179.337967 42.008878 -179.775100 0.000000 -0.000000 -0.000000 1.502400 12.280970 -17.027433 2.856352 2.229622 18.378523 0.000000 -0.000000 0.000000 -0.833190 -10.302956 -12.483923 -0.036871 -1.532043 17.480940 
-0.378168 -0.147654 -1.226268 -1.312494 -2.406364 -0.973652 0.000000 -0.000000 0.000000 -0.934486 0.731269 5.154800 -1.140094 -0.024056 2.792591 0.000000 0.000000 0.000000 -1.297572 -0.433855 1.738034 3.717134 -3.017656 9.495001 -1.241990 -0.446593 2.897311 -3.911961 6.326556 -0.645396 -71.809359 -5.437138 29.309626 0.116142 -5.779323 0.233571 -1.584864 -0.346715 2.485263 9.408399 -3.474792 0.329879 49.700920 35.727943 -5.184067 179.351188 42.292885 -179.774468 0.000000 -0.000000 -0.000000 1.508664 12.289971 -16.992734 2.838963 2.195942 18.321545 0.000000 -0.000000 0.000000 -0.831977 -10.296019 -12.466832 -0.034710 -1.537135 17.459504 
-0.404234 -0.153863 -1.256274 -1.265045 -2.417907 -0.980244 0.000000 -0.000000 0.000000 -0.918708 0.718879 5.093081 -1.103360 -0.022796 2.786927 0.000000 0.000000 0.000000 -1.252024 -0.436720 1.754348 3.632756 -2.963974 9.484201 -1.203687 -0.446159 2.903338 -3.983684 6.251573 -0.639071 -71.926442 -5.689666 28.999869 0.114661 -5.479497 0.231416 -1.542587 -0.357219 2.497242 9.662687 -3.494369 0.314024 50.315209 35.307766 -4.346944 179.366140 42.578584 -179.772817 0.000000 -0.000000 -0.000000 1.512569 12.302054 -16.960161 2.824059 2.168344 18.268512 0.000000 -0.000000 0.000000 -0.831708 -10.291615 -12.448923 -0.033197 -1.545133 17.436408 
-0.424360 -0.160038 -1.286367 -1.219811 -2.425715 -0.987935 0.000000 -0.000000 0.000000 -0.900553 0.706191 5.030121 -1.065913 -0.021154 2.782064 0.000000 0.000000 0.000000 -1.205015 -0.438393 1.773316 3.543337 -2.905876 9.469272 -1.164084 -0.444678 2.909988 -4.050870 6.179857 -0.632593 -72.040750 -5.953531 28.699641 0.114401 -5.184825 0.230381 -1.499130 -0.367337 2.508046 9.940407 -3.521643 0.296986 50.947718 34.826612 -3.433708 179.385045 42.947471 -179.768921 0.000000 -0.000000 -0.000000 1.514360 12.312055 -16.928705 2.814251 2.150154 18.215839 0.000000 -0.000000 0.000000 -0.834409 -10.284234 -12.429404 -0.033283 -1.552798 17.410253 
